<?xml version="1.0" encoding="UTF-8" standalone="no"?>
<svg width="43px" height="43px" viewBox="0 0 43 43" version="1.1" xmlns="http://www.w3.org/2000/svg" xmlns:xlink="http://www.w3.org/1999/xlink">
    <title>CEFFB5D4-4D91-469C-BEDA-1D4309CF4B4C</title>
    <defs></defs>
    <g id="Calc" stroke="none" stroke-width="1" fill="none" fill-rule="evenodd">
        <g id="Calc_1-screen_empty" transform="translate(-79.000000, -18.000000)" fill="#F12730">
            <g id="Group-5-Copy-32" transform="translate(79.000000, 18.000000)">
                <path d="M12.939952,33.9440816 C14.0219984,33.9440816 15.1040448,33.9535428 16.1856519,33.9416612 C17.3872177,33.9284596 17.6886528,33.6391224 17.6978804,32.4549304 C17.7121612,30.6586199 17.7273209,28.8614292 17.6926075,27.0657788 C17.6730538,26.0593696 18.0559993,25.5614457 19.1009156,25.5770677 C20.8212047,25.602591 22.5421528,25.5999506 24.2626616,25.5777278 C25.2515532,25.5649661 25.6309835,26.0259253 25.6123085,26.9936095 C25.5778149,28.78948 25.5927548,30.5864506 25.6065962,32.3829812 C25.6160435,33.6190998 25.9365929,33.9288996 27.1810012,33.9418813 C28.211417,33.9526627 29.2418328,33.9440816 30.2722486,33.9440816 C30.3027876,34.0653171 30.3333266,34.1865527 30.3638655,34.3077882 C30.1456986,34.5779829 29.9497219,34.8697404 29.7062889,35.1146318 C27.4081761,37.4275687 25.1041312,39.7347848 22.7965711,42.0387005 C21.7716479,43.0618318 21.3610195,43.0624919 20.3464225,42.0488218 C18.0654466,39.7702093 15.7868875,37.4893966 13.5149196,35.201983 C13.2479782,34.9331085 13.0293719,34.6158278 12.7883556,34.3209899 C12.8388877,34.1953538 12.8894199,34.0697177 12.939952,33.9440816" id="Fill-1-Copy"></path>
                <path d="M30.4584726,8.94186362 C29.4285433,8.94186362 28.3983972,8.93069837 27.368468,8.94470967 C26.0982942,8.96200487 25.7563576,9.3019979 25.7479014,10.5658612 C25.7366264,12.2421823 25.7242672,13.9187223 25.7520211,15.5943866 C25.7682831,16.5771481 25.3181498,16.9790974 24.374301,16.968151 C22.7142718,16.9486666 21.0540259,16.9716539 19.3937799,16.9598318 C18.2350552,16.9517315 17.9594679,16.660997 17.9510116,15.4428893 C17.9395197,13.803129 17.955565,12.1633687 17.9449404,10.5236084 C17.9371346,9.30024649 17.6101592,8.96288058 16.408286,8.94536645 C15.2944446,8.92916588 14.1801695,8.94208255 12.7883556,8.94208255 C13.1038392,8.46022508 13.2423918,8.15066285 13.4644229,7.92473059 C15.8792276,5.4674983 18.3154981,3.0315019 20.7263999,0.570328936 C21.4128749,-0.130674073 22.018907,-0.228315341 22.7483137,0.518224403 C25.1815487,3.00829568 27.6421039,5.47100113 30.0861803,7.950345 C30.2767714,8.14387613 30.4194437,8.3855711 30.5844492,8.60493557 C30.5423847,8.71724492 30.5005371,8.82955427 30.4584726,8.94186362" id="Fill-4-Copy"></path>
                <path d="M8.69111547,12.7883556 L8.69111547,30.5844492 C8.21356413,30.2213387 7.91942019,30.0456261 7.68345619,29.8110541 C5.35993534,27.4995247 3.04333552,25.181287 0.73084507,22.858505 C-0.244371864,21.8788856 -0.242857888,21.5101488 0.73084507,20.532477 C3.01867934,18.2363116 5.30932528,15.9427429 7.60710854,13.6565316 C7.86859385,13.3966415 8.18414974,13.1910664 8.69111547,12.7883556" id="Fill-6-Copy"></path>
                <path d="M34.1022817,30.1705866 L34.1022817,12.7883556 C34.4797372,13.0235315 34.7665588,13.1403537 34.9705406,13.3392141 C37.4145371,15.7224753 39.8420547,18.122363 42.2842697,20.5075932 C42.9302865,21.1387396 42.9788324,21.7569786 42.3303661,22.3957819 C39.8462858,24.8427047 37.359756,27.2874399 34.8663228,29.7249557 C34.7211305,29.8667175 34.5060143,29.9391298 34.1022817,30.1705866" id="Fill-8-Copy"></path>
            </g>
        </g>
    </g>
</svg>